<mxfile host="65bd71144e">
    <diagram id="x7arN-Wv4wXPcp71hIzD" name="第 1 页">
        <mxGraphModel dx="1234" dy="470" grid="0" gridSize="10" guides="1" tooltips="1" connect="1" arrows="1" fold="1" page="1" pageScale="1" pageWidth="827" pageHeight="1169" math="0" shadow="0">
            <root>
                <mxCell id="0"/>
                <mxCell id="1" parent="0"/>
                <mxCell id="58" value="" style="whiteSpace=wrap;html=1;fillColor=#FFFFFF;strokeColor=#36393d;rounded=1;arcSize=6;" vertex="1" parent="1">
                    <mxGeometry x="18" y="8" width="582" height="459" as="geometry"/>
                </mxCell>
                <mxCell id="27" value="" style="whiteSpace=wrap;html=1;fillColor=#cce5ff;strokeColor=#36393d;rounded=1;arcSize=6;" vertex="1" parent="1">
                    <mxGeometry x="241" y="47" width="333" height="394" as="geometry"/>
                </mxCell>
                <mxCell id="2" value="" style="whiteSpace=wrap;html=1;fillColor=#cce5ff;strokeColor=#36393d;rounded=1;arcSize=6;" vertex="1" parent="1">
                    <mxGeometry x="44.5" y="52" width="165" height="393" as="geometry"/>
                </mxCell>
                <mxCell id="3" value="&lt;b&gt;&lt;font color=&quot;#000000&quot;&gt;执行栈 ECstack&lt;/font&gt;&lt;/b&gt;" style="text;html=1;resizable=0;autosize=1;align=center;verticalAlign=middle;points=[];fillColor=none;strokeColor=none;rounded=0;" vertex="1" parent="1">
                    <mxGeometry x="42" y="20" width="97" height="18" as="geometry"/>
                </mxCell>
                <mxCell id="9" value="" style="whiteSpace=wrap;html=1;rounded=1;fontSize=14;fillColor=#ffff88;strokeColor=#36393d;arcSize=0;" vertex="1" parent="1">
                    <mxGeometry x="55" y="315" width="141" height="49" as="geometry"/>
                </mxCell>
                <mxCell id="19" value="&lt;font color=&quot;#000000&quot;&gt;&lt;font style=&quot;font-size: 12px&quot;&gt;VO：GO&lt;/font&gt;&lt;br&gt;&lt;/font&gt;" style="text;html=1;resizable=0;autosize=1;align=left;verticalAlign=middle;points=[];fillColor=none;strokeColor=none;rounded=0;" vertex="1" parent="1">
                    <mxGeometry x="58" y="331.5" width="58" height="18" as="geometry"/>
                </mxCell>
                <mxCell id="25" style="edgeStyle=none;html=1;fontSize=12;fontColor=#000000;fillColor=#008a00;strokeColor=#FF6666;strokeWidth=2;entryX=0;entryY=0.5;entryDx=0;entryDy=0;exitX=1;exitY=0.5;exitDx=0;exitDy=0;" edge="1" parent="1" source="48" target="53">
                    <mxGeometry relative="1" as="geometry">
                        <mxPoint x="125" y="344.2682038834952" as="sourcePoint"/>
                    </mxGeometry>
                </mxCell>
                <mxCell id="28" value="&lt;b&gt;&lt;font color=&quot;#000000&quot;&gt;堆内存 heap&lt;/font&gt;&lt;br&gt;&lt;/b&gt;" style="text;html=1;resizable=0;autosize=1;align=center;verticalAlign=middle;points=[];fillColor=none;strokeColor=none;rounded=0;" vertex="1" parent="1">
                    <mxGeometry x="237" y="20" width="77" height="18" as="geometry"/>
                </mxCell>
                <mxCell id="31" value="" style="whiteSpace=wrap;html=1;fillColor=#ffcc99;strokeColor=#36393d;rounded=1;arcSize=15;" vertex="1" parent="1">
                    <mxGeometry x="305" y="203" width="119" height="54" as="geometry"/>
                </mxCell>
                <mxCell id="32" value="&lt;font color=&quot;#000000&quot;&gt;为 foo 函数开辟的内存&lt;br&gt;地址：0x001&lt;/font&gt;" style="text;html=1;resizable=0;autosize=1;align=left;verticalAlign=middle;points=[];fillColor=none;strokeColor=none;rounded=0;" vertex="1" parent="1">
                    <mxGeometry x="311" y="167" width="129" height="32" as="geometry"/>
                </mxCell>
                <mxCell id="35" value="&lt;font color=&quot;#000000&quot;&gt;var age:18;&lt;br&gt;var boo = 0x002&lt;br&gt;&lt;/font&gt;" style="text;html=1;resizable=0;autosize=1;align=left;verticalAlign=middle;points=[];fillColor=none;strokeColor=none;rounded=0;" vertex="1" parent="1">
                    <mxGeometry x="311" y="206" width="96" height="32" as="geometry"/>
                </mxCell>
                <mxCell id="36" value="" style="whiteSpace=wrap;html=1;rounded=1;fontSize=14;fillColor=#ffff88;strokeColor=#36393d;arcSize=0;" vertex="1" parent="1">
                    <mxGeometry x="52" y="199" width="138" height="36" as="geometry"/>
                </mxCell>
                <mxCell id="34" style="edgeStyle=none;html=1;entryX=0;entryY=0.5;entryDx=0;entryDy=0;fontSize=12;fontColor=#000000;fillColor=#1ba1e2;strokeColor=#FF6666;shadow=0;sketch=0;jumpSize=14;endSize=8;startSize=10;strokeWidth=2;exitX=1;exitY=0.75;exitDx=0;exitDy=0;" edge="1" parent="1" source="36" target="31">
                    <mxGeometry relative="1" as="geometry"/>
                </mxCell>
                <mxCell id="37" value="&lt;font color=&quot;#000000&quot; size=&quot;1&quot;&gt;&lt;span style=&quot;font-size: 12px&quot;&gt;foo执行上下文&lt;/span&gt;&lt;/font&gt;" style="text;html=1;resizable=0;autosize=1;align=center;verticalAlign=middle;points=[];fillColor=none;strokeColor=none;rounded=0;" vertex="1" parent="1">
                    <mxGeometry x="47" y="175" width="87" height="19" as="geometry"/>
                </mxCell>
                <mxCell id="5" value="&lt;font color=&quot;#000000&quot; size=&quot;1&quot;&gt;&lt;span style=&quot;font-size: 12px&quot;&gt;全局执行上下文 GEC&lt;/span&gt;&lt;/font&gt;" style="text;html=1;resizable=0;autosize=1;align=center;verticalAlign=middle;points=[];fillColor=none;strokeColor=none;rounded=0;" vertex="1" parent="1">
                    <mxGeometry x="52" y="292" width="123" height="19" as="geometry"/>
                </mxCell>
                <mxCell id="41" value="" style="whiteSpace=wrap;html=1;rounded=1;fontSize=14;fillColor=#ffff88;strokeColor=#36393d;arcSize=0;" vertex="1" parent="1">
                    <mxGeometry x="52" y="235" width="138" height="53" as="geometry"/>
                </mxCell>
                <mxCell id="43" value="" style="whiteSpace=wrap;html=1;rounded=1;fontSize=14;fillColor=#ffff88;strokeColor=#36393d;arcSize=0;" vertex="1" parent="1">
                    <mxGeometry x="55" y="364" width="141" height="65" as="geometry"/>
                </mxCell>
                <mxCell id="40" value="&lt;font color=&quot;#000000&quot;&gt;&lt;font style=&quot;font-size: 12px&quot;&gt;执行代码：&lt;br&gt;&lt;/font&gt;foo()&lt;br&gt;var bar = foo()&lt;br&gt;bar()&lt;br&gt;&lt;/font&gt;" style="text;html=1;resizable=0;autosize=1;align=left;verticalAlign=middle;points=[];fillColor=none;strokeColor=none;rounded=0;" vertex="1" parent="1">
                    <mxGeometry x="58" y="365" width="86" height="60" as="geometry"/>
                </mxCell>
                <mxCell id="45" value="&lt;font color=&quot;#000000&quot;&gt;&lt;font style=&quot;font-size: 12px&quot;&gt;VO：AO&lt;/font&gt;&lt;br&gt;&lt;/font&gt;" style="text;html=1;resizable=0;autosize=1;align=left;verticalAlign=middle;points=[];fillColor=none;strokeColor=none;rounded=0;" vertex="1" parent="1">
                    <mxGeometry x="52" y="208" width="57" height="18" as="geometry"/>
                </mxCell>
                <mxCell id="47" value="&lt;font color=&quot;#000000&quot;&gt;执行代码：&lt;br&gt;无&lt;br&gt;&lt;/font&gt;" style="text;html=1;resizable=0;autosize=1;align=left;verticalAlign=middle;points=[];fillColor=none;strokeColor=none;rounded=0;" vertex="1" parent="1">
                    <mxGeometry x="52" y="236" width="70" height="32" as="geometry"/>
                </mxCell>
                <mxCell id="48" value="" style="whiteSpace=wrap;html=1;rounded=1;fontSize=14;fillColor=#ffff88;strokeColor=#36393d;arcSize=0;" vertex="1" parent="1">
                    <mxGeometry x="52" y="88" width="138" height="33" as="geometry"/>
                </mxCell>
                <mxCell id="49" value="&lt;font color=&quot;#000000&quot; size=&quot;1&quot;&gt;&lt;span style=&quot;font-size: 12px&quot;&gt;bar执行上下文&lt;/span&gt;&lt;/font&gt;" style="text;html=1;resizable=0;autosize=1;align=center;verticalAlign=middle;points=[];fillColor=none;strokeColor=none;rounded=0;" vertex="1" parent="1">
                    <mxGeometry x="49" y="64.5" width="87" height="19" as="geometry"/>
                </mxCell>
                <mxCell id="50" value="&lt;font color=&quot;#000000&quot;&gt;&lt;font style=&quot;font-size: 12px&quot;&gt;VO：AO&lt;/font&gt;&lt;br&gt;&lt;/font&gt;" style="text;html=1;resizable=0;autosize=1;align=left;verticalAlign=middle;points=[];fillColor=none;strokeColor=none;rounded=0;" vertex="1" parent="1">
                    <mxGeometry x="52" y="96" width="57" height="18" as="geometry"/>
                </mxCell>
                <mxCell id="51" value="" style="whiteSpace=wrap;html=1;rounded=1;fontSize=14;fillColor=#ffff88;strokeColor=#36393d;arcSize=0;" vertex="1" parent="1">
                    <mxGeometry x="52" y="118" width="138" height="50" as="geometry"/>
                </mxCell>
                <mxCell id="53" value="&lt;font color=&quot;#000000&quot; style=&quot;font-size: 13px&quot;&gt;空&lt;/font&gt;" style="whiteSpace=wrap;html=1;fillColor=#ffcc99;strokeColor=#36393d;rounded=1;arcSize=15;" vertex="1" parent="1">
                    <mxGeometry x="305" y="96" width="95" height="54" as="geometry"/>
                </mxCell>
                <mxCell id="54" value="&lt;font color=&quot;#000000&quot;&gt;为 bar 函数开辟的内存&lt;br&gt;&lt;/font&gt;&lt;span style=&quot;color: rgb(0 , 0 , 0)&quot;&gt;地址：0x002&lt;/span&gt;" style="text;html=1;resizable=0;autosize=1;align=left;verticalAlign=middle;points=[];fillColor=none;strokeColor=none;rounded=0;" vertex="1" parent="1">
                    <mxGeometry x="305" y="58" width="130" height="32" as="geometry"/>
                </mxCell>
                <mxCell id="56" style="edgeStyle=none;sketch=0;jumpSize=14;html=1;shadow=0;fontSize=12;fontColor=#000000;startSize=10;endSize=8;strokeColor=#FF6666;strokeWidth=2;" edge="1" parent="1" source="55" target="35">
                    <mxGeometry relative="1" as="geometry"/>
                </mxCell>
                <mxCell id="55" value="&lt;font color=&quot;#000000&quot;&gt;执行代码：&lt;br&gt;console.log(age)&lt;br&gt;&lt;/font&gt;" style="text;html=1;resizable=0;autosize=1;align=left;verticalAlign=middle;points=[];fillColor=none;strokeColor=none;rounded=0;" vertex="1" parent="1">
                    <mxGeometry x="52" y="124" width="99" height="32" as="geometry"/>
                </mxCell>
                <mxCell id="57" value="引用 age" style="text;html=1;resizable=0;autosize=1;align=center;verticalAlign=middle;points=[];fillColor=none;strokeColor=none;rounded=0;fontSize=12;fontColor=#000000;" vertex="1" parent="1">
                    <mxGeometry x="198" y="164" width="57" height="18" as="geometry"/>
                </mxCell>
                <mxCell id="60" style="edgeStyle=none;sketch=0;jumpSize=14;html=1;shadow=0;fontSize=12;fontColor=#000000;startSize=10;endSize=8;strokeColor=#FF6666;strokeWidth=2;exitX=0.331;exitY=1.059;exitDx=0;exitDy=0;exitPerimeter=0;" edge="1" parent="1" source="40">
                    <mxGeometry relative="1" as="geometry">
                        <mxPoint x="161" y="165.76310679611652" as="sourcePoint"/>
                        <mxPoint x="298" y="206" as="targetPoint"/>
                    </mxGeometry>
                </mxCell>
                <mxCell id="61" value="引用 age" style="text;html=1;resizable=0;autosize=1;align=center;verticalAlign=middle;points=[];fillColor=none;strokeColor=none;rounded=0;fontSize=12;fontColor=#000000;" vertex="1" parent="1">
                    <mxGeometry x="196" y="268" width="57" height="18" as="geometry"/>
                </mxCell>
            </root>
        </mxGraphModel>
    </diagram>
</mxfile>